<svg height="512pt" viewBox="-21 0 512 512" width="512pt" xmlns="http://www.w3.org/2000/svg"><path d="m462.429688 138.789062c-16.292969-31.648437-56.179688-47.609374-112.339844-44.949218-5.589844.269531-11.289063.710937-17.082032 1.339844-2.097656-5.441407-4.316406-10.71875-6.636718-15.820313-23.339844-51.179687-55.792969-79.359375-91.371094-79.359375-35.582031 0-68.03125 28.179688-91.371094 79.359375-2.320312 5.101563-4.539062 10.378906-6.636718 15.820313-5.792969-.628907-11.492188-1.070313-17.082032-1.339844-56.160156-2.660156-96.046875 13.300781-112.339844 44.949218-16.238281 31.550782-6.160156 73.160157 28.359376 117.210938-34.519532 44.050781-44.597657 85.660156-28.359376 117.210938 15.121094 29.367187 50.5625 45.238281 100.46875 45.238281 3.871094-.007813 7.832032-.097657 11.871094-.289063 5.589844-.269531 11.289063-.710937 17.082032-1.339844 2.097656 5.441407 4.316406 10.71875 6.636718 15.820313 23.339844 51.179687 55.789063 79.359375 91.371094 79.359375 35.578125 0 68.03125-28.179688 91.367188-79.359375 2.320312-5.101563 4.542968-10.378906 6.640624-15.820313 5.789063.628907 11.492188 1.070313 17.082032 1.339844 4.039062.191406 8 .289063 11.867187.289063 49.902344-.007813 85.351563-15.871094 100.46875-45.238281 16.242188-31.550782 6.160157-73.160157-28.359375-117.210938 34.523438-44.050781 44.601563-85.660156 28.363282-117.210938zm-343.9375 249.402344c-43.101563 2.039063-73.800782-8.421875-84.25-28.710937-9.941407-19.308594-1.980469-48.410157 21.820312-80.421875 16.828125 17.472656 36.757812 34.382812 59.019531 50.121094 2.871094 20.5 6.960938 40.121093 12.1875 58.441406-2.960937.238281-5.890625.429687-8.777343.570312zm-7.441407-99.5625c-13.109375-10.550781-25.039062-21.480468-35.550781-32.628906 10.511719-11.148438 22.441406-22.078125 35.550781-32.628906-.640625 10.738281-.96875 21.628906-.96875 32.628906s.328125 21.890625.96875 32.628906zm4.03125-105.808594c-22.261719 15.738282-42.191406 32.648438-59.023437 50.121094-23.796875-32.011718-31.757813-61.113281-21.816406-80.421875 9.578124-18.621093 36.21875-28.960937 73.839843-28.960937 3.378907 0 6.847657.082031 10.410157.25 2.886718.140625 5.816406.332031 8.777343.570312-5.230469 18.320313-9.320312 37.941406-12.1875 58.441406zm205.648438-22.148437c-9.242188-5.492187-18.769531-10.761719-28.53125-15.800781-5.179688-2.660156-10.371094-5.242188-15.570313-7.710938 12.261719-3.589844 24.332032-6.488281 36.070313-8.679687 3.070312 10.269531 5.761719 21.03125 8.03125 32.191406zm-149.8125-68.863281c17.921875-39.277344 41.273437-61.808594 64.082031-61.808594s46.160156 22.53125 64.078125 61.808594c1.203125 2.640625 2.371094 5.339844 3.511719 8.089844-21.871094 4.382812-44.621094 10.972656-67.589844 19.5625-22.96875-8.589844-45.71875-15.179688-67.589844-19.5625 1.140625-2.75 2.308594-5.449219 3.507813-8.089844zm-13.617188 36.671875c11.738281 2.191406 23.808594 5.089843 36.070313 8.679687-5.203125 2.46875-10.390625 5.050782-15.570313 7.710938-9.761719 5.039062-19.292969 10.320312-28.53125 15.800781 2.269531-11.160156 4.960938-21.921875 8.03125-32.191406zm-8.03125 222.847656c9.242188 5.480469 18.769531 10.761719 28.53125 15.800781 5.179688 2.660156 10.371094 5.242188 15.570313 7.710938-12.261719 3.589844-24.332032 6.488281-36.070313 8.679687-3.070312-10.269531-5.761719-21.03125-8.03125-32.191406zm149.808594 68.863281c-17.917969 39.277344-41.269531 61.808594-64.078125 61.808594s-46.160156-22.53125-64.082031-61.808594c-1.199219-2.640625-2.367188-5.339844-3.507813-8.089844 21.871094-4.382812 44.621094-10.972656 67.589844-19.5625 22.96875 8.589844 45.71875 15.179688 67.589844 19.5625-1.140625 2.75-2.308594 5.449219-3.511719 8.089844zm13.621094-36.671875c-11.738281-2.191406-23.808594-5.089843-36.070313-8.679687 5.199219-2.46875 10.390625-5.050782 15.570313-7.710938 9.761719-5.039062 19.289062-10.308594 28.53125-15.800781-2.269531 11.160156-4.960938 21.921875-8.03125 32.191406zm14.160156-71.449219c-15.160156 10.078126-31.382813 19.609376-48.402344 28.390626-14.449219 7.4375-29 14.097656-43.457031 19.910156-14.460938-5.8125-29.011719-12.472656-43.460938-19.910156-17.019531-8.78125-33.242187-18.3125-48.402343-28.390626-2.019531-18.109374-3.058594-36.898437-3.058594-56.070312s1.039063-37.960938 3.058594-56.070312c15.160156-10.078126 31.382812-19.609376 48.402343-28.390626 14.449219-7.4375 29-14.097656 43.460938-19.910156 14.457031 5.8125 29.007812 12.472656 43.457031 19.910156 17.019531 8.78125 33.242188 18.3125 48.402344 28.390626 2.019531 18.109374 3.058594 36.898437 3.058594 56.070312s-1.039063 37.960938-3.058594 56.070312zm24.648437-188.261718c3.5625-.167969 7.03125-.25 10.410157-.25 37.609375 0 64.261719 10.339844 73.839843 28.960937 9.941407 19.308594 1.980469 48.410157-21.820312 80.421875-16.828125-17.472656-36.757812-34.382812-59.019531-50.121094-2.871094-20.5-6.960938-40.121093-12.191407-58.441406 2.960938-.238281 5.890626-.429687 8.78125-.570312zm7.441407 99.5625c13.109375 10.550781 25.039062 21.480468 35.550781 32.628906-10.511719 11.148438-22.441406 22.078125-35.550781 32.628906.640625-10.738281.96875-21.628906.96875-32.628906s-.328125-21.890625-.96875-32.628906zm76.808593 136.109375c-10.449218 20.289062-41.140624 30.757812-84.25 28.710937-2.886718-.140625-5.816406-.332031-8.777343-.570312 5.230469-18.320313 9.320312-37.941406 12.1875-58.441406 22.261719-15.738282 42.191406-32.648438 59.023437-50.121094 23.796875 32.011718 31.757813 61.113281 21.816406 80.421875zm0 0" fill="#36f1ff"/><path d="m235 184.238281v143.523438c39.539062 0 71.710938-32.191407 71.710938-71.761719s-32.171876-71.761719-71.710938-71.761719zm227.429688-45.449219c-16.292969-31.648437-56.179688-47.609374-112.339844-44.949218-5.589844.269531-11.289063.710937-17.082032 1.339844-2.097656-5.441407-4.316406-10.71875-6.636718-15.820313-23.339844-51.179687-55.792969-79.359375-91.371094-79.359375v30c22.808594 0 46.160156 22.53125 64.078125 61.808594 1.203125 2.640625 2.371094 5.339844 3.511719 8.089844-21.871094 4.382812-44.621094 10.972656-67.589844 19.5625v32.167968c14.460938 5.8125 29.007812 12.472656 43.460938 19.910156 17.019531 8.78125 33.238281 18.3125 48.398437 28.390626 2.019531 18.109374 3.058594 36.898437 3.058594 56.070312s-1.039063 37.960938-3.058594 56.070312c-15.160156 10.078126-31.378906 19.609376-48.398437 28.390626-14.453126 7.4375-29 14.097656-43.460938 19.910156v32.167968c22.96875 8.589844 45.71875 15.179688 67.589844 19.5625-1.140625 2.75-2.308594 5.449219-3.511719 8.089844-17.917969 39.277344-41.269531 61.808594-64.078125 61.808594v30c35.578125 0 68.03125-28.179688 91.367188-79.359375 2.320312-5.101563 4.542968-10.378906 6.640624-15.820313 5.789063.628907 11.492188 1.070313 17.082032 1.339844 4.039062.191406 8 .289063 11.867187.289063 49.902344-.007813 85.351563-15.871094 100.46875-45.238281 16.242188-31.550782 6.160157-73.160157-28.359375-117.210938 34.523438-44.050781 44.601563-85.660156 28.363282-117.210938zm-170.230469 6.082032c-5.179688-2.660156-10.371094-5.242188-15.570313-7.710938 12.261719-3.589844 24.332032-6.488281 36.070313-8.679687 3.070312 10.269531 5.761719 21.03125 8.03125 32.191406-9.242188-5.492187-18.769531-10.761719-28.53125-15.800781zm20.5 238.648437c-11.738281-2.191406-23.808594-5.089843-36.070313-8.679687 5.199219-2.46875 10.390625-5.050782 15.570313-7.710938 9.761719-5.039062 19.289062-10.308594 28.53125-15.800781-2.269531 11.160156-4.960938 21.921875-8.03125 32.191406zm38.808593-259.710937c3.5625-.167969 7.03125-.25 10.410157-.25 37.609375 0 64.261719 10.339844 73.839843 28.960937 9.941407 19.308594 1.980469 48.410157-21.820312 80.421875-16.828125-17.472656-36.757812-34.382812-59.019531-50.121094-2.871094-20.5-6.960938-40.121093-12.191407-58.441406 2.960938-.238281 5.890626-.429687 8.78125-.570312zm7.441407 99.5625c13.109375 10.550781 25.039062 21.480468 35.550781 32.628906-10.511719 11.148438-22.441406 22.078125-35.550781 32.628906.640625-10.738281.96875-21.628906.96875-32.628906s-.328125-21.890625-.96875-32.628906zm76.808593 136.109375c-10.449218 20.289062-41.140624 30.757812-84.25 28.710937-2.886718-.140625-5.816406-.332031-8.777343-.570312 5.230469-18.320313 9.320312-37.941406 12.1875-58.441406 22.261719-15.738282 42.191406-32.648438 59.023437-50.121094 23.796875 32.011718 31.757813 61.113281 21.816406 80.421875zm0 0" fill="#05dbdb"/><path d="m235 184.238281h-.011719c-39.539062.011719-71.699219 32.191407-71.699219 71.761719s32.160157 71.75 71.699219 71.761719h.011719c39.539062 0 71.710938-32.191407 71.710938-71.761719s-32.171876-71.761719-71.710938-71.761719zm0 0" fill="#667cff"/><path d="m306.710938 256c0 39.570312-32.171876 71.761719-71.710938 71.761719h-.011719v-143.523438h.011719c39.539062 0 71.710938 32.191407 71.710938 71.761719zm0 0" fill="#5a39ff"/></svg>